<?xml version="1.0" encoding="UTF-8"?>
<svg fill="none" viewBox="0 0 130 15" xmlns="http://www.w3.org/2000/svg">
<g clip-path="url(#a)" fill="#fff">
<path d="m7.6502 13.971c3.4336 0 5.5418-1.437 5.5418-3.7723 0-2.0957-1.7669-3.3332-4.4776-3.4729v-0.11974c2.3493-0.13971 3.8753-1.1976 3.8753-3.0339 0-2.1756-2.1283-3.5727-5.4213-3.5727h-7.1684v13.971h7.6502v1e-4zm-4.5781-12.315h3.4938c1.767 0 2.8914 0.85825 2.8914 2.2355 0 1.3773-1.1244 2.2353-2.8914 2.2353h-3.4938v-4.4709zm0 5.9878h4.0359c1.767 0 2.8914 0.91812 2.8914 2.3352 0 1.3971-1.1244 2.2754-2.8914 2.2754h-4.0359v-4.6105z"/>
<path d="m20.099 13.971v-5.2093h3.0118c1.7068 0 2.9918 0.73849 3.3935 2.4949l0.5822 2.7144h3.5341l-0.6627-2.8741c-0.5622-2.2554-1.9477-3.5727-4.779-3.5727h-0.2408v-0.0998h0.6224c2.6304 0 4.3371-1.3772 4.3371-3.433 0-2.435-2.3694-3.9918-6.0841-3.9918h-6.8269v13.971h3.1124zm0-12.135h3.4537c1.9677 0 3.2327 1.0379 3.2327 2.6346 0 1.5967-1.245 2.6146-3.1525 2.6146h-3.5339v-5.2492z"/>
<path d="m50.447 13.971-6.4454-13.971h-4.1364l-6.4252 13.971h3.1926l1.7467-3.912h7.088l1.747 3.912h3.2327zm-8.5336-11.816 2.7106 6.0277h-5.4014l2.6908-6.0277z"/>
<path d="M56.561 13.9714V0H53.5089V13.9714H56.561Z"/>
<path d="m72.51 10.678-8.2123-10.678h-3.2931v13.971h3.0922l-0.1606-10.738 8.2125 10.738h3.2929v-13.971h-3.0922l0.1606 10.678z"/>
<path d="M93.5278 0H90.3954V5.88797H82.9862V0H79.8738V13.9714H82.9862V7.9238H90.3954V13.9714H93.5278V0Z"/>
<path d="m105.17 14.351c4.658 0 7.409-2.6145 7.409-7.0655v-7.2851h-3.032v7.2452c0 3.0738-1.586 4.8501-4.337 4.8501-2.791 0-4.397-1.7963-4.397-4.9101v-7.1852h-3.0523v7.345c0 4.4109 2.7313 7.0056 7.4093 7.0056z"/>
<path d="m124.46 13.971c3.434 0 5.542-1.437 5.542-3.7723 0-2.0957-1.767-3.3332-4.478-3.4729v-0.11974c2.35-0.13971 3.876-1.1976 3.876-3.0339 0-2.1756-2.129-3.5727-5.422-3.5727h-7.168v13.971h7.65v1e-4zm-4.578-12.315h3.494c1.767 0 2.891 0.85825 2.891 2.2355 0 1.3773-1.124 2.2353-2.891 2.2353h-3.494v-4.4709zm0 5.9878h4.036c1.767 0 2.891 0.91812 2.891 2.3352 0 1.3971-1.124 2.2754-2.891 2.2754h-4.036v-4.6105z"/>
</g>
<defs>
<clipPath id="a">
<rect width="130" height="14.351" fill="#fff"/>
</clipPath>
</defs>
</svg>
